# xmcd CD database file
#
# Track frame offsets:
#	183
#	29815
#	52535
#	70818
#	97820
#	123893
#	149545
#
# Disc length: 2690 seconds
#
# Revision: 3
# Processed by: cddbd v1.5.2PL0 Copyright (c) Steve Scherf et al.
# Submitted via: CDex 1.50
#
DISCID=580a8007
DTITLE=Neil Nappe - July
DYEAR=1986
DGENRE=New Age
TTITLE0=Valley of Indecision
TTITLE1=The Alternative
TTITLE2=The Morning Song
TTITLE3=Pickupstix
TTITLE4=Taxes and Tolls
TTITLE5=Casselberry
TTITLE6=Nova
EXTD=YEAR: 1986
EXTT0=
EXTT1=
EXTT2=
EXTT3=
EXTT4=
EXTT5=
EXTT6=
PLAYORDER=
